# xmcd
# 
# Track frame offsets:
#     182
#     15127
#     33495
#     51472
#     69920
#     86182
#     103790
#     118390
#     143180
#     161032
#     175895
#     191195
#     208035
#     226020
#     242335
#     257122
#     270475
#     285452
# 
# Disc length: 4072
# 
# Revision: 1
# Processed by: cddbd v1.5.2PL0 Copyright (c) Steve Scherf et al.
# Submitted via: BonkEnc v1.0.8
# 
DISCID=000fe612
DTITLE=Divers - Hits Attitude 02
DYEAR=2002
DGENRE=Blues
TTITLE0=Because I Got High (Afroman)
TTITLE1=Qui Est L'Exemple ? (Rohff)
TTITLE2=Perdono (Tiziano Ferro)
TTITLE3=Jusqu'au Bout (David Charvet)
TTITLE4=J'Attends l'Amour (Jenifer)
TTITLE5=Une Eteincelle (LS)
TTITLE6=Eternal Flame (Atomic Kitten)
TTITLE7=Un Enfant De Toi (Phil Barney)
TTITLE8=On Se Ressemble (Mario)
TTITLE9=Si Fragiles (Jessica)
TTITLE10=En Apesanteur (Calogero)
TTITLE11=Megamix (Floorfilla)
TTITLE12=Adam and Yves (Dragon Mix) (Zazie)
TTITLE13=In My Eyes (Sinema)
TTITLE14=Gimme, Gimme, Gimme (Star Academy)
TTITLE15=L'Agitateur (Jean Pascal)
TTITLE16=In Your Eyes (Kylie Minogue)
TTITLE17=Like A Prayer (Mad'House)
EXTD=YEAR: 2002 ID3G: 0
EXTT0=
EXTT1=
EXTT2=
EXTT3=
EXTT4=
EXTT5=
EXTT6=
EXTT7=
EXTT8=
EXTT9=
EXTT10=
EXTT11=
EXTT12=
EXTT13=
EXTT14=
EXTT15=
EXTT16=
EXTT17=
PLAYORDER=
